<svg width="115" height="123.00000000000001" xmlns="http://www.w3.org/2000/svg" xml:space="preserve" version="1.1">

 <g>
  <title>Layer 1</title>
  <g id="svg_1">
   <path id="svg_2" d="m57.6044,0.69443c-0.4025,-0.41232 -0.95477,-0.69443 -1.5164,-0.69443c-0.12169,0 -0.24337,0 -0.3557,0.0434l-50.71508,0c-1.35727,0 -2.63029,0.64018 -3.53826,1.70353c-0.91733,1.06335 -1.47896,2.49561 -1.47896,4.11234l0,111.35857c0,1.61672 0.56163,3.04899 1.4696,4.10148c0.91733,1.06335 2.15291,1.70353 3.53826,1.70353c25.55411,0 49.01148,0 74.43454,0c1.39471,0 2.63029,-0.65103 3.53826,-1.70353c0.91733,-1.06335 1.4696,-2.49561 1.4696,-4.10148l0,-13.56311l24.02835,0c3.5757,0 6.52425,-3.4179 6.52425,-7.56279l0,-31.45557c0,-4.14489 -2.93919,-7.56279 -6.52425,-7.56279l-24.00963,0l0,-23.16579c0.03744,-0.22786 0.08424,-0.41232 0.08424,-0.65103c0,-0.78124 -0.31826,-1.47567 -0.7582,-1.98564l-25.90981,-30.39222c-0.08424,-0.09765 -0.12169,-0.14106 -0.19657,-0.18446l-0.08424,0l0,0zm20.34968,102.96029l0,11.176c0,0.14106 -0.16849,0.32551 -0.29017,0.41232c-0.08424,0.09765 -0.07488,0.18446 -0.23401,0.18446c-20.228,0 -50.72444,0 -70.40017,0c-0.12169,0 -0.28081,-0.0434 -0.3557,-0.18446c-0.08424,-0.09765 -0.15913,-0.28211 -0.15913,-0.41232l0,-106.58435c0,-0.18446 0.03744,-0.32551 0.15913,-0.41232c0.08424,-0.09765 0.19657,-0.18446 0.3557,-0.18446l45.37025,0l0,0l0,20.95229c0,2.1701 0.7582,4.75251 1.99378,6.18478c1.23558,1.43226 3.84716,2.60412 5.71925,2.60412l17.84108,0l0,19.68279l-58.92422,0c-3.59442,0 -6.52425,3.40705 -6.52425,7.56279l0,31.45557c0,4.15574 2.94855,7.56279 6.52425,7.56279l58.92422,0l0,0zm-45.21112,-35.74151l6.66466,0l0,13.53056c0,2.84283 -0.21529,5.00208 -0.64587,6.48859c-0.43994,1.47567 -1.31047,2.73432 -2.63029,3.76512c-1.31983,1.0308 -3.00471,1.54077 -5.05466,1.54077c-2.17163,0 -3.85652,-0.34722 -5.0453,-1.01995c-1.19814,-0.68358 -2.11547,-1.67098 -2.7707,-2.98388c-0.64587,-1.30206 -1.03901,-2.91878 -1.15134,-4.85017l6.33705,-0.99825c0.00936,1.08505 0.0936,1.89884 0.25273,2.43051c0.15913,0.53167 0.42122,0.95484 0.79564,1.29121c0.25273,0.21701 0.61779,0.31466 1.08582,0.31466c0.74884,0 1.29175,-0.31466 1.63808,-0.95484c0.34634,-0.64018 0.52419,-1.71438 0.52419,-3.23345l0,-15.32089l0,0zm10.09996,0l11.04537,0c2.40564,0 4.20286,0.66188 5.41036,1.98564c1.19814,1.32376 1.79721,3.2226 1.79721,5.67481c0,2.51731 -0.65523,4.4921 -1.95634,5.90267c-1.30111,1.42141 -3.30425,2.1267 -5.98135,2.1267l-3.64123,0l0,9.22292l-6.66466,0l0,-24.91272l-0.00936,0zm6.66466,10.64433l1.63808,0c1.29175,0 2.19971,-0.26041 2.71454,-0.78124c0.52419,-0.52082 0.77692,-1.17185 0.77692,-1.98564c0,-0.78124 -0.22465,-1.44312 -0.68332,-1.98564c-0.4493,-0.54252 -1.30111,-0.81379 -2.55541,-0.81379l-1.90018,0l0,5.5663l0.00936,0zm14.09688,-10.64433l17.76619,0l0,5.32759l-11.10153,0l0,3.97128l10.29653,0l0,5.07803l-10.29653,0l0,4.90442l11.43851,0l0,5.6314l-18.10317,0l0,-24.91272l0,0zm31.53546,15.89597l0,-5.18653l10.26845,0l0,10.59008c-1.9657,1.55162 -3.70675,2.61497 -5.20443,3.17919c-1.50704,0.56423 -3.30425,0.83549 -5.37292,0.83549c-2.55541,0 -4.63344,-0.49912 -6.23408,-1.50822c-1.61,-0.99825 -2.85495,-2.50646 -3.73483,-4.50295c-0.88925,-1.98564 -1.32919,-4.27509 -1.32919,-6.85751c0,-2.72347 0.48674,-5.07803 1.45087,-7.09622c0.96413,-2.00734 2.37756,-3.52641 4.24966,-4.57891c1.46023,-0.80294 3.41658,-1.2044 5.87838,-1.2044c2.3682,0 4.14669,0.24956 5.32611,0.74868c1.17942,0.49912 2.15291,1.26951 2.92983,2.322c0.77692,1.0525 1.35727,2.37626 1.75041,3.98213l-6.39321,1.33461c-0.26209,-0.94399 -0.7114,-1.67098 -1.33855,-2.1701c-0.62715,-0.49912 -1.43215,-0.74868 -2.415,-0.74868c-1.45087,0 -2.61157,0.58593 -3.47274,1.75778c-0.86116,1.17185 -1.29175,3.02729 -1.29175,5.55545c0,2.69092 0.43994,4.61146 1.31047,5.77246c0.87052,1.15015 2.08739,1.73608 3.65059,1.73608c0.73948,0 1.44151,-0.11936 2.12483,-0.36892c0.67395,-0.24956 1.44151,-0.67273 2.31204,-1.26951l0,-2.33286l-4.46495,0l0,0.01085zm-36.82413,-55.80407l0,-19.05346l18.50567,21.73353l-16.19363,0c-0.63651,0 -1.19814,-0.32551 -1.62872,-0.78124c-0.4025,-0.46657 -0.68332,-1.161 -0.68332,-1.89884l0,0z"/>
  </g>
 </g>
</svg>